<svg xmlns="http://www.w3.org/2000/svg" xmlns:xlink="http://www.w3.org/1999/xlink" version="1.1" x="0px" y="0px" fill="#D6694B" viewBox="-545 370.9 100 100" enable-background="new -545 370.9 100 100" xml:space="preserve"><path d="M-511.6,413.6c-1.4,0-2.5,1.1-2.5,2.5v30.1c0,1.4,1.1,2.5,2.5,2.5c1.4,0,2.5-1.1,2.5-2.5v-30.1  C-509,414.8-510.2,413.6-511.6,413.6z"/><path d="M-499.5,413.6c-1.4,0-2.5,1.1-2.5,2.5v30.1c0,1.4,1.1,2.5,2.5,2.5s2.5-1.1,2.5-2.5v-30.1  C-497,414.8-498.1,413.6-499.5,413.6z"/><path d="M-487.5,413.6c-1.4,0-2.5,1.1-2.5,2.5v30.1c0,1.4,1.1,2.5,2.5,2.5s2.5-1.1,2.5-2.5v-30.1  C-485,414.8-486.1,413.6-487.5,413.6z"/><path d="M-464.9,404.3h-6.6v-14.5c0-1.4-1.1-2.5-2.5-2.5h-6.5c0-0.1,0-0.1,0-0.2c0-8.1-6.6-14.7-14.7-14.7c-5,0-9.6,2.5-12.3,6.6  c-5.1,0-9.4,3.5-10.6,8.3h-5.3c-1.4,0-2.5,1.1-2.5,2.5v59.3c0,3.8,1.1,9.6,4.3,13.8h-8c-1.4,0-2.5,1.1-2.5,2.5s1.1,2.5,2.5,2.5h18.5  h24.6h18.5c1.4,0,2.5-1.1,2.5-2.5s-1.1-2.5-2.5-2.5h-8c3.3-4.2,4.4-10,4.4-13.8V443h6.6c11,0,11-14.1,11-19.4  C-453.9,418.4-453.9,404.3-464.9,404.3z M-507.4,384.1c0.2,0,0.5,0,0.9,0.1c1.1,0.2,2.2-0.4,2.6-1.4c1.6-3.3,5-5.4,8.6-5.4  c5.3,0,9.6,4.3,9.6,9.6c0,0.1,0,0.1,0,0.2h-27.1C-511.7,385.4-509.7,384.1-507.4,384.1z M-516,392.4h32.6h6.8v7.8h-44.3v-7.8H-516z   M-511.1,463c-9.6,0-9.8-13.3-9.8-13.8v-43.9h44.3v1.6v33.6v8.6c0,0.6-0.3,13.8-9.9,13.8H-511.1z M-464.9,438h-6.6v-28.6h6.6  c4.2,0,6,4.3,6,14.3C-459,433.7-460.7,438-464.9,438z"/></svg>