<svg xmlns="http://www.w3.org/2000/svg" xmlns:xlink="http://www.w3.org/1999/xlink" version="1.1" x="0px" y="0px" viewBox="0 0 100 100" enable-background="new 0 0 100 100" xml:space="preserve"><path d="M50.4,5c-24.8,0-45,20.2-45,45c0,24.8,20.2,45,45,45c24.8,0,45-20.2,45-45C95.4,25.2,75.2,5,50.4,5z   M56.7,11.9c-0.6,1.8-3.7,0.6-5,0.6c1-0.4,2.5-0.9,3.4-1.6c0.1-0.1,0.1-0.1,0.2-0.2c0.6,0.1,1.1,0.2,1.7,0.3c-0.5,0.2-1,0.4-1.5,0.7  C55.9,11.8,56.3,11.8,56.7,11.9z M41,12.7c0.7,0.7,1.4-0.4,2.1-0.7c1.5-0.8,3.6-0.8,5.3-1.2c-0.3,0.8-2.7,0.5-3.6,0.8  c-1.1,0.4-0.6,0.7-1.3,1.9c0.3,0,0.7,0.2,1,0.1v0.2c-0.7-0.1-1.4-0.4-1.6,0.5c-0.9-1.4-1.6-1.3-2.6,0c1,0.6,2,1.2,1.2,2.2  c-1,1.1-1.5-0.3-0.6-0.9c-0.9-0.4-1.6-1.1-2.3-0.2c0.3,0,0.6,0.1,0.9,0.1c-0.2,0.2-0.3,1-0.5,1.1c-0.4,0.2-1.8-0.3-2.2-0.3  c-1.1-0.1-2.1-0.1-3.2,0c0.2,1.3-1.3,0.1-1.8-0.3c1-1,2.1-0.6,3.3-0.5c0.9,0.1,2.3,0.1,2.4-1.1c-1-0.2-1.5-0.2-2-0.9  c0-0.1-0.1-0.2-0.1-0.2c1.8-0.7,3.7-1.3,5.6-1.8C40.7,12,40.6,12.4,41,12.7z M10.8,50c0-9.4,3.3-18,8.8-24.8  c0.7,0.5,1.4,1.1,1.7,1.3c0.7,0.6,1,1.3,1.4,2c0,0,0.4,0.6,0.5,0.9c0.5,0.5,0.8,1,0.9,1.6c0.1,0.7-0.2,1.4-0.2,2.2  c-0.2,2.4,0.1,4.6,2,6.3c0.5,0.5,1.2,0.7,1.7,1.2c0.5,0.5,0.5,0.9,0.8,1.4c0.8,1.4,2,2.8,3,4.1c0.9,1.2,1.2,0.9,0.4-0.3  c-0.6-0.8-1.3-1.6-1.8-2.5c0-0.1-0.5-1.3-0.4-1.2c1.3,0.3,1.6,1.2,2.5,2.3c0.8,1.1,1.6,1.7,2.1,2.9c0.6,1.5,1.5,2.2,2.9,2.9  c0.7,0.3,1.9,1.2,2.7,1.3c0.9,0.1,1.4-0.5,2.2-0.1c0.6,0.3,1,1.1,1.7,1.4c0.7,0.2,1.1-0.1,1.8,0.4c0.8,0.5,1,1.4,1.7,1.9  c0.5,0.4,1.2,0.9,1.9,1c0.5,0.1,1-0.3,1.4-0.1c0.8,0.3,1,1.3,0.8,2.1c-0.3,0.9-1.1,1.5-1.5,2.4c-0.3,0.8-0.1,1.5-0.2,2.3  c-0.1,0.8-0.8,0-0.1,1.4c0.3,0.6,0.7,1.2,1.1,1.8c0.8,1.2,1.3,2.2,2.3,3.1c0.7,0.7,2.3,1.4,2.6,2.4c0.3,0.9,0.1,2.8-0.1,3.7  c-0.3,1.9-0.3,4.2-0.8,6c-0.5,1.7-1.1,2.3-0.7,4.1c0.2,0.8,0.3,0.4,0,1.5c-0.1,0.3,0,0.4-0.1,0.7c-0.2,0.6-0.8,1-1.1,1.7  c0.8,0,0.8,0.3,0.7,0.6c-1.1,0.1-2.1,0.2-3.2,0.2C28.6,89.6,10.8,71.8,10.8,50z M57.9,88.9c-0.2-0.2-0.4-0.5-0.4-0.6  c0-0.2,0.8-1.3,0.9-1.5c0.2-0.4,0.3-1.3,0.6-1.6c0.4-0.5,1.4-0.3,1.2-1.4c2.1,0,3-0.3,3.3-2.5c-0.4-0.2-0.3-0.1-0.4-0.4  c0.1,0.4,1.6-0.2,1.7,0.1c0.1,0.2,2-2.4,2.2-2.6c0.5-0.6,1-1,1.3-1.7c0.1-0.3,0.3-1.1,0.6-1.5c0,0.1,0,0.1-0.1,0.2  c0.7-1.1,1.5-0.9,2.5-1.4c1-0.4,0.3-0.3,1-1c0.9-0.8,1-0.3,1.3-1.7c0.2-1-0.1-1.9,0.3-2.7c0.4-1.1,1.3-1.5,2-2.4  c0.5-0.7,1-1.9,0.3-2.6c-0.5-0.6-2.2-1.1-2.9-1.3c-0.9-0.2-1.9-0.2-2.7-0.6c-1-0.4-1.7-1.4-2.2,0.2c-0.2-0.1-0.8-0.5-0.8-0.7  c0,0.4,0.9-0.3,1.1-0.5c-0.4,0-1.8,0.3-2,0.2c0.1-0.4,0.8-1.3,0.8-1.4c0.1-1-1.3-2.1-2.1-2.3c-1-0.3-1.6-0.2-2.5-0.8  c-1.1-0.8-2.1-1.7-3.5-1.8c-0.3,0-0.6,0.1-0.9,0.1c-0.7-0.1-1-0.6-1.6-0.7c-0.8-0.2-1.1,0.5-1.5,0.5c-0.7,0-0.8-0.7-1.8-0.1  c-1.5,0.9-0.7,1.4-2.3,1c-0.9-0.2-1.9,0.3-2.7-0.3c-0.8-0.5-0.9-2-0.2-2.6c-0.4,0.3-0.4-0.7-0.6-0.9c-0.4-0.3-1.1,0-1.6-0.1  c-0.7-0.2-1.1-0.2-0.9-0.9c0.2-0.7,2.1-2.6,0.1-2.6c-1.1,0-1.4,1.6-2.5,1.8c-1.2,0.2-2.3-0.2-3-1.3c-1.3-2.3,0.8-5.1,3-5.3  c1.7-0.2,4.2-1.4,5.5,0.5c0.4,0.5,1.3,2.7,1.7,1.3c0.1-0.4-0.4-2.2-0.5-3c0.3-0.5,0.9-0.9,1.3-1.3c-0.1,0-0.1,0.1-0.2,0.2  c0.4-0.4,1.6-1,1.8-1.6c0.1-0.3-0.4-0.8-0.1-1.2c0.2-0.4,0.7-0.2,0.9-0.4c0.3-0.3,0.3-0.9,0.6-1.3c0.3-0.4,0.9-0.4,1.2-0.7  c0.7-0.6,0.9-1.4,1.7-1.7c0.8-0.5,1.6-1.4,2.6-1c-0.4,0.4-1.3,0.7-1.5,1c-0.2,0.3,1.3,0.1,1.5,0c0.8-0.3,1.5-1,2.3-1.4  c1.2-0.8,2.7-0.9,4.2-0.6c0.5,0.1-0.8-1.8-1-1.9c-0.5-0.6-0.6-1.1-1.5-0.4c-0.2,0.2-0.5,1-0.7,1.3c-0.5,1-0.4,0.8-1.6,1.4  c0.1,0,0.1-0.1,0.2-0.1c-0.8,0.2-1.7,0.5-2-0.5c-0.1-0.4,0.4-0.9,0.1-1.2c-0.6-0.8-2.6,0.9-3.3,1.1c0.4-2.9,3.8-1.4,5.6-1.9  c0.5-0.2,2.4-0.9,2.5-1.3c0.2-0.7-1.5-1.8-1.8-2.1c-0.8-0.7-1.2-1.1-1.7-2.1c-0.5-1.1-0.8-2.3-2-1.4c-0.4,0.3-0.1,1-0.9,1.1  c-0.5,0.1-1-0.5-1.3-0.8c-0.4-0.4-0.9-1.5-1.6-1.6c-0.7-0.1-2.5-1-3.3-0.4c-0.7,0.5,0.1,2.3,0.3,2.9c0.4,1.4,0.7,1.4-0.5,2.3  c-0.6,0.4-0.9,0-0.7,1.1c0.1,0.6,0.8,0.7,0.3,1.2c-0.3,0.3-1,0.3-1.3,0.1c-1-0.5-0.1-1.1-0.6-1.8c-0.4-0.5-2.4-0.9-3-1.2  c-1.5-0.7-5.5-1.4-4.2-3.7c0.3-0.6,1.6-1.6,2.1-1.9c0.6-0.4,1.3-0.5,1.8-1c0.3-0.3,0.3-1.1,0.5-1.3c0.3-0.3,1.3-0.2,1.9-0.1  c2.3-0.5,0.2-3.8,3.2-3.2c0.8,0.2,1.7,1,2.4,1.5c0.8,0.5,1,0.5,0.8,1.3c-0.1,0.2-0.9,1-1.1,1.2c-0.4,0.3-1.1,0.5-1.5,0.7  c1.6,0,2.3-0.1,3.6,0.8c1.1,0.7,1.8,1.2,3.2,1.2c-0.1-0.7-1.3-0.4-1.2-1.1c0-0.6,0.7,0.2,0.8,0.2c0.4,0,1.4,0.5,1.2-0.6  c-0.2-0.9-2.2-0.5-1.6-2c0.9-0.1,0.7,0.9,1.3,1.1c0.6,0.2,1.5-0.6,1.6-1.1c-0.9-0.5-3.7-1.2-3.4-2.5c1.8,1.2,3.7,2.4,5.5,3.5  c-1.5,1.3,1.1,0.6,1.2,0.6c0.4,0.1,1.6,1.1,0.8,1.3c-0.8,0.2-1.2-0.9-1.9-0.1c0.6,0.2,2.9,0.3,2.3,1.5c-0.2,0.5-1.7,0.4-2.1,1.4  c0.3-0.1,0.6,0,1,0c-0.7,1.1,0.3,1.8,0.9,2.7c0.6,1,1.5,2.5,2.8,2.8c2.7,0.7,2.4-3.7,4.4-4.4c0.6-0.2,1.2-0.1,1.8-0.2  c0.6-0.2,1-0.6,1.5-1c1.1-0.8,2.1-0.9,3.3-0.9c4,4,7.1,8.9,9.1,14.4c-0.2,0.1-0.4,0.2-0.5,0.4c-0.2,0.2-0.2,0.4-0.3,0.7  c-0.1,0.1-0.2,0.2-0.3,0.3c-0.2,0.4,0,0.9,0,1.3c0,0.5-0.2,0.9,0.1,1.3c0.2,0.4,0.6,0.8,1,1.1c0.3,0.3,0.7,0.6,1.1,0.6  c0.1,0,0.4,0,0.6-0.1c0.1,0.6,0.2,1.2,0.3,1.8c-0.4,0.4-0.9,0.9-1.1,1.3c-0.3,0.6-0.3,1-0.9,1.5c-0.5,0.5-1.1,0.6-1.6,1.2  c-0.4,0.6-0.4,1-0.7,1.6c-0.2,0.3-0.6,0.4-0.7,0.8c-0.4,0.8,0.1,2.1,0,3c0,1.1-0.4,2,0.2,3c0.6,0.9,1.5,1.8,2.3,2.4  c0.5,0.5,1.1,0.9,1.7,1.1C84.9,74.6,72.9,86,57.9,88.9z"/></svg>