<svg xmlns="http://www.w3.org/2000/svg" xmlns:xlink="http://www.w3.org/1999/xlink" version="1.1" x="0px" y="0px" viewBox="0 0 100 100" enable-background="new 0 0 100 100" xml:space="preserve"><path fill="#334045" d="M57.9,75.874v-1.788c9.218-2.582,16-11.055,16-21.086v-4.158c3.381-0.442,6-3.342,6-6.842  s-2.619-6.399-6-6.842v-3.844V27c0-12.076-9.824-21.9-21.9-21.9h-4c-0.602,0-1.196,0.031-1.785,0.079  c-0.06,0.005-0.119,0.008-0.178,0.013c-9.784,0.874-17.733,8.207-19.544,17.695l-0.193,0.886l0.038,0.02  C26.183,24.841,26.1,25.911,26.1,27v8.158c-3.381,0.442-6,3.342-6,6.842s2.619,6.399,6,6.842V53c0,10.032,6.782,18.504,16,21.086  v1.788c-10.753,2.127-19.079,8.498-20.953,16.703l-0.53,2.323h58.766l-0.53-2.323C76.979,84.373,68.653,78,57.9,75.874z M29.9,53  v-7.923L27,45.1c-1.709,0-3.1-1.391-3.1-3.1s1.391-3.1,3.1-3.1l2.9,0.023V27c0-0.477,0.035-0.944,0.071-1.411  C38.964,29.667,50.564,31.9,63,31.9c2.362,0,4.738-0.112,7.1-0.281v7.307l1.921-0.021C72.337,38.902,72.661,38.9,73,38.9  c1.709,0,3.1,1.391,3.1,3.1s-1.391,3.1-3.1,3.1c-0.339,0-0.663-0.002-0.979-0.006L70.1,45.074V53c0,9.98-8.119,18.1-18.1,18.1h-4  C38.02,71.1,29.9,62.98,29.9,53z M54.1,80c0,1.709-1.391,3.1-3.1,3.1h-2c-1.709,0-3.1-1.391-3.1-3.1v-5.202  c0.691,0.065,1.392,0.103,2.1,0.103h4c0.708,0,1.408-0.037,2.1-0.103V80z M42,42c0-1.657-1.343-3-3-3s-3,1.343-3,3s1.343,3,3,3  S42,43.657,42,42z M61,45c1.657,0,3-1.343,3-3s-1.343-3-3-3s-3,1.343-3,3S59.343,45,61,45z M62.639,56.794  c0.438-0.954,0.02-2.082-0.934-2.52c-0.952-0.437-2.082-0.02-2.52,0.934C57.542,58.787,53.937,61.1,50,61.1  c-3.935,0-7.54-2.311-9.183-5.888c-0.438-0.953-1.566-1.37-2.52-0.934c-0.954,0.438-1.372,1.566-0.934,2.52  C39.625,61.72,44.585,64.9,50,64.9C55.417,64.9,60.378,61.718,62.639,56.794z M50,51c1.657,0,3-0.895,3-2s-1.343-2-3-2s-3,0.895-3,2  S48.343,51,50,51z"></path></svg>