<svg xmlns="http://www.w3.org/2000/svg" xmlns:xlink="http://www.w3.org/1999/xlink" viewBox="0 0 75 75" version="1.1" x="0px" y="0px"><g><path style="" d="M 68.640625 39.617188 C 68.390625 20.6875 54.609375 5.371094 37.695312 5.371094 C 20.816406 5.371094 7.058594 20.621094 6.753906 39.496094 C 3.875 40.375 1.757812 43.027344 1.757812 46.191406 L 1.757812 62.597656 C 1.757812 66.472656 4.914062 69.628906 8.789062 69.628906 L 15.234375 69.628906 C 19.109375 69.628906 22.265625 66.472656 22.265625 62.597656 L 22.265625 46.191406 C 22.265625 42.3125 19.109375 39.160156 15.234375 39.160156 L 11.46875 39.160156 C 11.925781 23.03125 23.5 10.058594 37.695312 10.058594 C 51.890625 10.058594 63.464844 23.03125 63.921875 39.160156 L 59.765625 39.160156 C 55.890625 39.160156 52.734375 42.316406 52.734375 46.191406 L 52.734375 62.597656 C 52.734375 66.476562 55.890625 69.628906 59.765625 69.628906 L 66.210938 69.628906 C 70.085938 69.628906 73.242188 66.476562 73.242188 62.597656 L 73.242188 46.191406 C 73.242188 43.171875 71.320312 40.613281 68.640625 39.617188 Z M 17.578125 46.191406 L 17.578125 62.597656 C 17.578125 63.890625 16.527344 64.941406 15.234375 64.941406 L 8.789062 64.941406 C 7.496094 64.941406 6.445312 63.890625 6.445312 62.597656 L 6.445312 46.191406 C 6.445312 44.898438 7.496094 43.847656 8.789062 43.847656 L 15.234375 43.847656 C 16.527344 43.847656 17.578125 44.898438 17.578125 46.191406 Z M 68.554688 62.597656 C 68.554688 63.890625 67.503906 64.941406 66.210938 64.941406 L 59.765625 64.941406 C 58.472656 64.941406 57.421875 63.890625 57.421875 62.597656 L 57.421875 46.191406 C 57.421875 44.898438 58.472656 43.847656 59.765625 43.847656 L 66.210938 43.847656 C 67.503906 43.847656 68.554688 44.898438 68.554688 46.191406 Z M 68.554688 62.597656 " stroke="none" fill-rule="nonzero" fill="rgb(0%,0%,0%)" fill-opacity="1"/></g></svg>