<svg xmlns="http://www.w3.org/2000/svg" xmlns:xlink="http://www.w3.org/1999/xlink" version="1.1" x="0px" y="0px" viewBox="0 0 125 125" style="enable-background:new 0 0 100 100;" xml:space="preserve"><g fill="#334045"><path d="M50,0C22.4,0,0,22.4,0,50c0,27.6,22.4,50,50,50c27.6,0,50-22.4,50-50C100,22.4,77.6,0,50,0z M50,96.3   C24.5,96.3,3.7,75.5,3.7,50S24.5,3.7,50,3.7c25.5,0,46.3,20.8,46.3,46.3S75.5,96.3,50,96.3z"/><path d="M70.2,48.1H51.9V29.8c0-1-0.8-1.9-1.9-1.9c-1,0-1.9,0.8-1.9,1.9v18.4H29.8c-1,0-1.9,0.8-1.9,1.9c0,1,0.8,1.9,1.9,1.9h18.4   v18.4c0,1,0.8,1.9,1.9,1.9c1,0,1.9-0.8,1.9-1.9V51.9h18.4c1,0,1.9-0.8,1.9-1.9C72.1,49,71.2,48.1,70.2,48.1z"/></g></svg>